<?xml version="1.0" encoding="utf-8"?>
<!-- Generator: Adobe Illustrator 16.0.0, SVG Export Plug-In . SVG Version: 6.00 Build 0)  -->
<!DOCTYPE svg PUBLIC "-//W3C//DTD SVG 1.1//EN" "http://www.w3.org/Graphics/SVG/1.1/DTD/svg11.dtd">
<svg version="1.1" id="katman_1" xmlns="http://www.w3.org/2000/svg" xmlns:xlink="http://www.w3.org/1999/xlink" x="0px" y="0px"
	 width="323px" height="100px" viewBox="0 0 323 100" enable-background="new 0 0 323 100" xml:space="preserve">
<g>
	<path d="M322.999,85.139h-5.593l-0.015-8.186h5.31v1.195h-3.854v2.038h3.167v1.195h-3.167v2.563h4.152V85.139z M308.435,75.52
		l5.539,7.123v-5.689h1.442v9.754l-5.539-7.137v5.568h-1.428L308.435,75.52z M299.977,78.255v-1.302h1.47v1.302H299.977z M306.3,79
		v3.454c0,0.474-0.074,0.891-0.222,1.248c-0.148,0.357-0.361,0.653-0.635,0.884c-0.274,0.233-0.603,0.409-0.985,0.524
		c-0.38,0.116-0.806,0.176-1.272,0.176c-0.458,0-0.883-0.06-1.274-0.176c-0.39-0.115-0.727-0.291-1.012-0.524
		c-0.282-0.23-0.507-0.526-0.672-0.884c-0.166-0.357-0.251-0.773-0.251-1.248V79h1.47v3.507c0,0.26,0.051,0.488,0.148,0.686
		c0.098,0.196,0.229,0.361,0.391,0.497c0.162,0.134,0.345,0.234,0.553,0.302c0.207,0.065,0.423,0.1,0.647,0.1
		s0.438-0.031,0.64-0.094c0.202-0.062,0.377-0.155,0.526-0.282c0.148-0.125,0.267-0.288,0.352-0.487
		c0.083-0.202,0.127-0.442,0.127-0.721V79H306.3z M306.3,76.953v1.302h-1.47v-1.302H306.3z M294.271,85.286
		c-0.655,0-1.248-0.111-1.779-0.329c-0.531-0.22-0.983-0.526-1.362-0.92c-0.396-0.401-0.696-0.857-0.902-1.367
		c-0.208-0.511-0.312-1.047-0.312-1.611c0-0.581,0.104-1.125,0.312-1.635c0.206-0.51,0.507-0.968,0.902-1.371
		c0.388-0.383,0.842-0.685,1.367-0.903c0.527-0.219,1.119-0.328,1.774-0.328c0.638,0,1.254,0.14,1.847,0.422
		c0.593,0.281,1.132,0.663,1.618,1.146l-0.904,0.965c-0.422-0.419-0.85-0.747-1.281-0.984c-0.431-0.238-0.857-0.355-1.279-0.355
		c-0.431,0-0.825,0.08-1.18,0.241c-0.355,0.16-0.662,0.378-0.924,0.651c-0.259,0.271-0.465,0.594-0.613,0.966
		c-0.146,0.37-0.222,0.766-0.222,1.186c0,0.421,0.075,0.815,0.222,1.181c0.148,0.366,0.354,0.688,0.613,0.959
		c0.262,0.273,0.568,0.491,0.924,0.65c0.354,0.161,0.749,0.242,1.18,0.242h0.147c0.27,0,0.539-0.043,0.81-0.127
		c0.271-0.085,0.507-0.201,0.714-0.35c0.207-0.146,0.374-0.321,0.506-0.522c0.131-0.201,0.195-0.422,0.195-0.662v-0.686h-2.44V80.55
		h3.896v1.986c0,0.295-0.08,0.602-0.241,0.924c-0.161,0.323-0.406,0.616-0.729,0.887c-0.322,0.269-0.723,0.491-1.201,0.67
		c-0.475,0.179-1.024,0.27-1.644,0.27H294.271z M288.239,76.953v5.501c0,0.475-0.074,0.891-0.222,1.248
		c-0.149,0.357-0.359,0.653-0.635,0.884c-0.274,0.233-0.602,0.409-0.984,0.524c-0.382,0.116-0.807,0.176-1.274,0.176
		c-0.457,0-0.881-0.06-1.272-0.176c-0.392-0.115-0.729-0.291-1.011-0.524c-0.285-0.23-0.508-0.526-0.674-0.884
		c-0.167-0.357-0.25-0.773-0.25-1.248v-5.501h1.469v5.554c0,0.26,0.05,0.488,0.149,0.686c0.098,0.197,0.229,0.361,0.392,0.497
		c0.161,0.134,0.346,0.234,0.553,0.302c0.204,0.065,0.422,0.1,0.645,0.1c0.227,0,0.439-0.031,0.643-0.094
		c0.201-0.062,0.377-0.155,0.523-0.282c0.15-0.125,0.267-0.286,0.352-0.487c0.085-0.203,0.13-0.442,0.13-0.721v-5.554H288.239z
		 M276.844,83.944c1.176,0,1.765-0.452,1.765-1.356c0-0.213-0.044-0.397-0.134-0.55c-0.091-0.151-0.203-0.276-0.338-0.374
		c-0.136-0.1-0.285-0.17-0.451-0.215c-0.167-0.046-0.32-0.067-0.465-0.067h-1.361v2.563H276.844z M275.859,80.187h0.835
		c0.207,0,0.403-0.019,0.587-0.059c0.185-0.042,0.343-0.104,0.479-0.188c0.135-0.085,0.241-0.194,0.323-0.329
		c0.081-0.134,0.121-0.299,0.121-0.496c0-0.196-0.042-0.357-0.128-0.482c-0.085-0.127-0.193-0.223-0.322-0.297
		c-0.133-0.071-0.279-0.119-0.446-0.146c-0.166-0.026-0.328-0.04-0.491-0.04h-0.957V80.187z M279.648,79.114
		c0,0.431-0.075,0.762-0.225,1c-0.147,0.236-0.339,0.433-0.573,0.582c0.154,0.072,0.303,0.163,0.446,0.27
		c0.144,0.107,0.272,0.238,0.383,0.396c0.112,0.157,0.203,0.34,0.271,0.55c0.066,0.21,0.101,0.453,0.101,0.731
		c0,0.51-0.099,0.926-0.296,1.248c-0.197,0.321-0.452,0.574-0.762,0.756c-0.31,0.185-0.649,0.313-1.018,0.385
		c-0.369,0.07-0.719,0.107-1.053,0.107h-2.506l-0.015-8.186h2.414c0.377,0,0.735,0.042,1.078,0.121
		c0.342,0.081,0.643,0.207,0.904,0.377c0.259,0.169,0.467,0.394,0.619,0.671C279.57,78.398,279.648,78.729,279.648,79.114z
		 M261.254,75.52l5.541,7.123v-5.689h1.44v9.754l-5.538-7.137v5.568h-1.43L261.254,75.52z M259.146,85.139h-5.595l-0.013-8.186
		h5.311v1.195h-3.854v2.038h3.167v1.195h-3.167v2.563h4.15V85.139z M247.359,83.944c0.431,0,0.825-0.066,1.179-0.202
		c0.354-0.135,0.664-0.326,0.925-0.575c0.259-0.252,0.462-0.559,0.607-0.92c0.143-0.361,0.214-0.768,0.214-1.214
		c0-0.449-0.071-0.851-0.214-1.208c-0.146-0.358-0.349-0.659-0.607-0.904c-0.261-0.249-0.57-0.438-0.925-0.571
		c-0.354-0.134-0.748-0.201-1.179-0.201h-0.932v5.796H247.359z M247.468,76.953c0.512,0,1.021,0.081,1.528,0.243
		c0.508,0.161,0.965,0.408,1.371,0.736c0.402,0.331,0.73,0.754,0.981,1.27c0.253,0.514,0.379,1.124,0.379,1.831
		c0,0.705-0.129,1.318-0.385,1.837c-0.256,0.52-0.59,0.947-1.005,1.281c-0.413,0.335-0.88,0.584-1.402,0.746
		c-0.521,0.159-1.047,0.241-1.576,0.241H245l-0.012-8.186H247.468z M240.789,77.103h1.47l-0.121,2.508h-1.349V77.103z
		 M239.569,83.97v1.169h-5.769v-0.859c0.315-0.304,0.63-0.611,0.943-0.926c0.271-0.259,0.564-0.544,0.884-0.852
		c0.318-0.31,0.622-0.594,0.91-0.853l0.256-0.254l-0.015,0.015c0.127-0.118,0.252-0.234,0.378-0.352
		c0.126-0.114,0.241-0.243,0.346-0.381c0.102-0.14,0.186-0.29,0.247-0.449c0.063-0.163,0.095-0.346,0.095-0.552
		c0-0.455-0.123-0.811-0.371-1.065c-0.246-0.256-0.55-0.383-0.91-0.383c-0.098,0-0.208,0.011-0.329,0.035
		c-0.121,0.021-0.249,0.067-0.385,0.14c-0.134,0.07-0.269,0.173-0.403,0.301c-0.135,0.132-0.266,0.299-0.392,0.504l-1.334-0.457
		c0.143-0.231,0.31-0.45,0.498-0.656s0.401-0.384,0.641-0.537c0.237-0.15,0.501-0.273,0.789-0.361
		c0.286-0.091,0.593-0.134,0.915-0.134c0.314,0,0.633,0.049,0.95,0.147c0.32,0.099,0.607,0.253,0.864,0.462
		c0.256,0.21,0.465,0.482,0.626,0.812c0.163,0.333,0.243,0.73,0.243,1.193c0,0.252-0.031,0.484-0.095,0.698
		c-0.063,0.215-0.164,0.431-0.303,0.644c-0.14,0.215-0.316,0.442-0.532,0.678c-0.216,0.238-0.477,0.494-0.782,0.771
		c-0.342,0.306-0.641,0.573-0.896,0.807c-0.256,0.23-0.501,0.466-0.734,0.696H239.569z M231.438,85.139h-1.415v-6.319l-1.497,0.912
		v-1.407l1.834-1.128h1.078V85.139z M223.547,78.229c-0.38,0-0.698,0.136-0.959,0.403c-0.26,0.268-0.392,0.631-0.392,1.086
		c0,0.457,0.121,0.794,0.364,1.013s0.553,0.328,0.932,0.328c0.331,0,0.595-0.058,0.789-0.174c0.192-0.116,0.34-0.246,0.443-0.39
		c0.104-0.142,0.17-0.273,0.203-0.395c0.03-0.121,0.047-0.182,0.047-0.182s-0.011-0.09-0.034-0.268
		c-0.022-0.179-0.08-0.375-0.174-0.583c-0.097-0.212-0.238-0.403-0.427-0.577C224.151,78.316,223.887,78.229,223.547,78.229z
		 M223.492,82.239c-0.332,0-0.662-0.044-0.984-0.134c-0.322-0.089-0.613-0.234-0.87-0.437c-0.256-0.201-0.463-0.46-0.618-0.784
		c-0.159-0.321-0.238-0.71-0.238-1.167c0-0.446,0.082-0.838,0.243-1.174c0.161-0.335,0.375-0.611,0.64-0.83
		c0.267-0.22,0.562-0.384,0.89-0.491c0.328-0.108,0.659-0.16,0.993-0.16c0.322,0,0.656,0.051,1.002,0.154
		c0.346,0.103,0.664,0.292,0.952,0.568c0.287,0.279,0.522,0.665,0.706,1.16c0.185,0.497,0.276,1.139,0.276,1.927
		c0,0.769-0.08,1.431-0.241,1.983c-0.161,0.556-0.38,1.011-0.654,1.371c-0.274,0.356-0.597,0.62-0.972,0.79
		c-0.372,0.171-0.764,0.255-1.179,0.255c-0.478,0-0.884-0.087-1.221-0.263c-0.337-0.174-0.622-0.368-0.855-0.582
		c-0.271-0.241-0.495-0.523-0.674-0.846l1.241-0.483c0.115,0.188,0.251,0.359,0.403,0.51c0.127,0.126,0.282,0.241,0.472,0.348
		c0.189,0.11,0.4,0.162,0.634,0.162c0.271,0,0.513-0.09,0.729-0.274c0.216-0.183,0.395-0.413,0.538-0.69
		c0.145-0.278,0.254-0.57,0.331-0.878c0.075-0.309,0.109-0.594,0.102-0.853c-0.082,0.136-0.185,0.252-0.312,0.355
		c-0.125,0.103-0.262,0.188-0.41,0.255s-0.304,0.118-0.465,0.154S223.635,82.239,223.492,82.239z M218.215,85.139h-1.414v-6.319
		l-1.497,0.912v-1.407l1.834-1.128h1.077V85.139z"/>
	<path fill-rule="evenodd" clip-rule="evenodd" fill="#005B6D" d="M47.375,92.112V42.424V31.386H36.337H7.509l5.997,11.038h22.831
		v43.691L47.375,92.112z M70.368,92.112V42.424V31.386h11.037h28.827l-5.996,11.038H81.405v43.691L70.368,92.112z"/>
	<polygon fill-rule="evenodd" clip-rule="evenodd" fill="#00313C" points="0,15.115 53.313,15.115 54.233,15.115 58.828,15.115 
		64.341,15.115 64.344,15.115 117.742,15.115 111.746,26.153 64.344,26.153 64.341,26.153 64.341,96.825 58.828,99.825 
		58.828,99.825 53.313,96.825 53.313,26.153 5.997,26.153 	"/>
	<path fill-rule="evenodd" clip-rule="evenodd" fill="#00313C" d="M15.49,62.169c-1.726-4.86-2.665-10.092-2.665-15.546
		c0-0.427,0.006-0.854,0.018-1.278h9.251c-0.015,0.425-0.024,0.85-0.024,1.278c0,4.109,0.667,8.063,1.896,11.76l-5.667-2.522
		L15.49,62.169z M33.416,85.223c-6.228-4.181-11.389-9.833-14.984-16.455l2.59-5.815l6.055,2.694l0.177-0.067
		c1.702,2.87,3.779,5.492,6.163,7.798V85.223z M100.634,67.844c-3.612,7.022-8.957,13.004-15.473,17.379V73.377
		c2.751-2.661,5.094-5.743,6.923-9.143l2.755,6.188L100.634,67.844z M105.734,45.345c0.011,0.425,0.018,0.852,0.018,1.278
		c0,4.887-0.756,9.597-2.154,14.021l-6.037,2.686l-2.64-5.928c1.032-3.412,1.586-7.03,1.586-10.779c0-0.429-0.009-0.854-0.023-1.278
		H105.734z M53.129,9.911c-2.784,0.465-5.464,1.237-8.002,2.284H28.086c6.85-6.213,15.563-10.409,25.2-11.651l4.529,4.528
		l-4.687,4.687V9.911z M60.514,0.175c11.528,0.299,22.012,4.796,29.978,12.021H73.449c-3.854-1.588-8.032-2.549-12.41-2.752
		l4.372-4.372L60.514,0.175z"/>
	<path d="M317.046,25.019l-0.009-4.913H323v4.913H317.046z M323,61.757h-5.908l-0.043-33.629H323V61.757z M292.668,61.757h8.062
		l-7.232,8.171h-5.687L292.668,61.757z M310.611,55.851c-1.987,1.987-4.204,3.571-6.652,4.747c-2.447,1.18-4.997,1.767-7.646,1.767
		c-2.614-0.072-4.987-0.532-7.123-1.379c-2.133-0.847-4.029-2.099-5.687-3.755c-1.582-1.655-2.795-3.532-3.642-5.632
		c-0.847-2.097-1.27-4.306-1.27-6.624c-0.038-2.392,0.377-4.638,1.24-6.735c0.865-2.098,2.089-3.975,3.671-5.631
		c1.547-1.583,3.415-2.825,5.604-3.727c2.19-0.901,4.611-1.354,7.26-1.354c2.65,0,5.182,0.581,7.592,1.74
		c2.411,1.159,4.61,2.732,6.598,4.721l-3.7,3.975c-1.729-1.73-3.486-3.083-5.271-4.059s-3.524-1.463-5.218-1.463
		c-1.729,0-3.331,0.332-4.802,0.994c-1.473,0.661-2.743,1.555-3.81,2.678c-1.068,1.122-1.897,2.447-2.484,3.975
		c-0.589,1.527-0.884,3.156-0.884,4.886c0,1.729,0.295,3.35,0.884,4.857c0.587,1.511,1.416,2.826,2.484,3.948
		c1.066,1.123,2.337,2.016,3.81,2.678c1.471,0.663,3.072,0.994,4.802,0.994c1.656,0,3.387-0.498,5.188-1.491
		c1.806-0.993,3.554-2.336,5.246-4.029L310.611,55.851z M275.534,61.757h-7.564l-12.367-13.911l-0.828,0.773v13.138h-5.244
		l-0.056-33.676h5.3v13.525l13.636-13.525h7.288l-16.343,16.01L275.534,61.757z M242.553,61.757h-22.911l-0.057-33.676h21.753v4.913
		h-15.79v8.392h12.976v4.915h-12.976v10.544h17.005V61.757z M214.044,32.994H198.31v8.392h11.814v4.915H198.31v15.456h-5.853
		l-0.055-33.676h21.642V32.994z M159.644,25.019v-4.913h6.018v4.913H159.644z M185.536,28.128v22.588
		c0,1.945-0.306,3.664-0.91,5.135c-0.606,1.47-1.475,2.688-2.597,3.644c-1.122,0.957-2.465,1.676-4.028,2.153
		c-1.566,0.478-3.306,0.717-5.217,0.717c-1.878,0-3.618-0.239-5.219-0.717s-2.981-1.196-4.141-2.153
		c-1.159-0.956-2.08-2.171-2.761-3.644s-1.021-3.184-1.021-5.135V28.128h6.018v22.809c0,1.063,0.201,2.007,0.607,2.816
		c0.404,0.809,0.938,1.491,1.601,2.043c0.662,0.553,1.416,0.966,2.263,1.242s1.73,0.414,2.652,0.414
		c0.918,0,1.793-0.129,2.621-0.387s1.545-0.644,2.152-1.159s1.088-1.19,1.437-2.016c0.346-0.826,0.524-1.813,0.524-2.954V28.128
		H185.536z M185.536,20.105v4.913h-6.018v-4.913H185.536z M152.942,32.994h-8.889v28.763h-5.907V32.994h-9.276v-4.913h24.072V32.994
		z"/>
</g>
</svg>
